<?xml version="1.0" standalone="no"?>
<!DOCTYPE svg PUBLIC "-//W3C//DTD SVG 20010904//EN"
 "http://www.w3.org/TR/2001/REC-SVG-20010904/DTD/svg10.dtd">
<svg version="1.0" xmlns="http://www.w3.org/2000/svg"
 width="32.000000pt" height="32.000000pt" viewBox="0 0 32.000000 32.000000"
 preserveAspectRatio="xMidYMid meet">

<g transform="translate(0.000000,32.000000) scale(0.100000,-0.100000)"
fill="#000000" stroke="none">
<path d="M74 248 c-41 -39 -74 -77 -74 -85 0 -7 9 -18 20 -25 17 -11 20 -24
20 -75 l0 -63 120 0 120 0 0 63 c0 51 3 64 20 75 28 17 25 33 -10 67 -22 21
-30 38 -30 63 0 32 -2 34 -30 30 -18 -3 -35 1 -41 9 -20 24 -40 14 -115 -59z
m161 -18 c38 -38 66 -73 62 -77 -4 -4 -37 22 -72 57 l-65 64 -65 -64 c-35 -35
-68 -61 -72 -57 -6 7 124 147 137 147 3 0 37 -31 75 -70z m15 40 c0 -5 -4 -10
-10 -10 -5 0 -10 5 -10 10 0 6 5 10 10 10 6 0 10 -4 10 -10z m-38 -67 c48 -47
48 -47 48 -115 0 -66 -1 -68 -25 -68 -23 0 -25 4 -25 45 l0 45 -50 0 -50 0 0
-45 c0 -41 -2 -45 -25 -45 -24 0 -25 2 -25 67 0 67 0 68 47 115 26 26 50 48
52 48 3 0 27 -21 53 -47z m-24 -145 c3 -36 2 -38 -27 -38 -28 0 -31 3 -31 33
0 40 7 49 35 45 15 -2 21 -12 23 -40z"/>
<path d="M136 194 c-9 -8 -16 -19 -16 -24 0 -11 29 -40 40 -40 11 0 40 29 40
40 0 5 -7 16 -16 24 -8 9 -19 16 -24 16 -5 0 -16 -7 -24 -16z m40 -15 c10 -17
-13 -36 -27 -22 -12 12 -4 33 11 33 5 0 12 -5 16 -11z"/>
</g>
</svg>
