<svg width="22" height="24" viewBox="0 0 22 24" fill="none" xmlns="http://www.w3.org/2000/svg">
<path d="M21.5303 6.53033C21.8232 6.23744 21.8232 5.76256 21.5303 5.46967L16.7574 0.6967C16.4645 0.403807 15.9896 0.403807 15.6967 0.6967C15.4038 0.989594 15.4038 1.46447 15.6967 1.75736L19.9393 6L15.6967 10.2426C15.4038 10.5355 15.4038 11.0104 15.6967 11.3033C15.9896 11.5962 16.4645 11.5962 16.7574 11.3033L21.5303 6.53033ZM3 6.75L21 6.75L21 5.25L3 5.25L3 6.75Z" fill="#7D8A96"/>
<path d="M0.469669 17.4697C0.176777 17.7626 0.176777 18.2374 0.469669 18.5303L5.24264 23.3033C5.53553 23.5962 6.01041 23.5962 6.3033 23.3033C6.59619 23.0104 6.59619 22.5355 6.3033 22.2426L2.06066 18L6.3033 13.7574C6.59619 13.4645 6.59619 12.9896 6.3033 12.6967C6.01041 12.4038 5.53553 12.4038 5.24264 12.6967L0.469669 17.4697ZM19 17.25L1 17.25L1 18.75L19 18.75L19 17.25Z" fill="#7D8A96"/>
</svg>
