<svg width="19" height="11" viewBox="0 0 19 11" fill="none" xmlns="http://www.w3.org/2000/svg">
<path d="M11.7186 11H15.4695C17.594 11 19 9.55471 19 7.65228V0H16.391V7.65228C16.391 8.20335 15.9689 8.61164 15.4695 8.61164H11.7186C11.2192 8.61164 10.8132 8.20335 10.8132 7.65228V0H8.18804V7.65228C8.18804 8.20335 7.78082 8.61164 7.28144 8.61164H3.53176C3.03113 8.61164 2.60897 8.20335 2.60897 7.65228V0H0V7.65228C0 9.55471 1.40598 11 3.53176 11H7.28144C8.15691 11 8.92154 10.7483 9.50062 10.3237C10.0785 10.7483 10.8443 11 11.7186 11Z" fill="white"/>
</svg>
