<svg width="42" height="42" viewBox="0 0 42 42" fill="none" xmlns="http://www.w3.org/2000/svg">
<rect width="42" height="42" rx="4" fill="#4479FB"/>
<path d="M24.4263 29.5563H30.4919C33.9274 29.5563 36.2009 27.2323 36.2009 24.1734V11.8691H31.9821V24.1734C31.9821 25.0595 31.2994 25.716 30.4919 25.716H24.4263C23.6188 25.716 22.9623 25.0595 22.9623 24.1734V11.8691H18.7172V24.1734C18.7172 25.0595 18.0587 25.716 17.2512 25.716H11.1877C10.3781 25.716 9.69545 25.0595 9.69545 24.1734V11.8691H5.47656V24.1734C5.47656 27.2323 7.75013 29.5563 11.1877 29.5563H17.2512C18.6669 29.5563 19.9033 29.1515 20.8398 28.4688C21.7742 29.1515 23.0126 29.5563 24.4263 29.5563Z" fill="white"/>
</svg>
